<svg id="Layer_1" class="n-icon" xmlns="http://www.w3.org/2000/svg" viewBox="0 0 128 128"><polygon class="n-icon" points="60 29.5 60 68 85.5 68 85.5 60 68 60 68 29.5 60 29.5"/><path class="n-icon" d="M64.0752,104l0.0146,8a48.3621,48.3621,0,0,0,8.6709-.7979L71.31,103.335A40.3962,40.3962,0,0,1,64.0752,104Z"/><path class="n-icon" d="M78.2954,101.3711l2.8584,7.4727a47.88,47.88,0,0,0,7.8208-3.8447l-4.168-6.8281A39.8336,39.8336,0,0,1,78.2954,101.3711Z"/><path class="n-icon" d="M64,16A47.8723,47.8723,0,0,0,20.8712,42.9218l-7.8144-1.824L20,64,36.3647,46.5381l-7.44-1.7366a39.9936,39.9936,0,1,1,61.7132,49.04l5.33,5.9648A48.0005,48.0005,0,0,0,64,16Z"/></svg>