<svg id="Layer_1" class="n-icon" xmlns="http://www.w3.org/2000/svg" viewBox="0 0 128 128">
    <path
        id="nimbus-logo"
        class="n-icon"
        fill="#ffffff"
        d="M92.66,33.76a31.9967,31.9967,0,0,0-57.26-.1A23.4545,23.4545,0,0,0,40.54,80h7.23A38.984,38.984,0,0,0,44,96a20,20,0,0,0,40,0,38.984,38.984,0,0,0-3.77-16h6.83A23.459,23.459,0,0,0,92.66,33.76ZM80,96a16,16,0,0,1-32,0,36.5452,36.5452,0,0,1,4.21-16A61.7592,61.7592,0,0,1,64,64,61.7578,61.7578,0,0,1,75.79,80,36.5452,36.5452,0,0,1,80,96Z"
        />
</svg>
