<svg id="Layer_1" class="n-icon" xmlns="http://www.w3.org/2000/svg" viewBox="0 0 128 128"><path class="n-icon" d="M110.2607,76.03c0.5339-2.691.5554-2.7993,1.0892-5.49l-6.3625-4.0269c-0.0012-2.2008-.0015-2.8674-0.0026-5.0682l6.3583-4.0335c-0.5367-2.69-.5582-2.7988-1.0948-5.4892l-7.4192-1.2856c-0.8433-2.0328-1.0987-2.6485-1.942-4.6814l4.3307-6.16-3.1121-4.6524-7.3464,1.6516-3.5856-3.5819,1.6439-7.3481L88.1619,22.757l-6.1552,4.3371L77.3232,25.157,76.03,17.7392,70.54,16.65l-4.0269,6.3625-5.0682.0026L57.411,16.6569l-5.4892,1.0948L50.6363,25.171l-4.6814,1.942-6.16-4.3307-4.6523,3.1121,1.6515,7.3464-3.5819,3.5856-7.3481-1.6439L22.757,39.8381l4.3372,6.1552-1.9371,4.6835L17.7393,51.97,16.65,57.46l6.3624,4.0269c0.0012,2.2009.0015,2.8674,0.0027,5.0682L16.657,70.589l1.0948,5.4892,7.4192,1.2855c0.8433,2.0329,1.0986,2.6486,1.942,4.6814l-4.3307,6.16,3.1121,4.6523,7.3464-1.6515,3.5856,3.5819-1.6439,7.3481,4.6556,3.1073,6.1552-4.3372,4.6834,1.9371,1.2933,7.4178,5.49,1.0891,4.0269-6.3624,5.0682-.0027,4.0335,6.3583,5.4892-1.0948,1.2855-7.4192,4.6815-1.942,6.16,4.3307,4.6524-3.1121-1.6516-7.3464,3.5819-3.5856,7.3481,1.6439,3.1073-4.6556-4.3372-6.1552,1.9371-4.6834ZM64,88A24,24,0,1,1,88,64,24,24,0,0,1,64,88Z"/></svg>