<svg xmlns="http://www.w3.org/2000/svg" viewBox="0 0 128 128"><path class="n-icon" d="M24,64H16V56h8v8Zm0,0H16v8h8V64ZM40,24H24V40H40V24Zm8,24H16V16H48V48ZM44,20H20V44H44V20Zm60,4H88V40h16V24Zm8,24H80V16h32V48Zm-4-28H84V44h24V20ZM24,104H40V88H24v16ZM16,80H48v32H16V80Zm4,28H44V84H20v24Zm4-36h8V64H24v8ZM80.0325,88h-8v8h8V88Zm-16,8h-8v16h8v-8h8V96h-8ZM112,104V96h-8v8H96.0651v8h16v-8H112ZM48,80h8V72H48v8Zm64-16V56H96v8H80v8H72V64h8V56H72V48.1626H64.0044l0.0281-8.0663h8v-24h-16v8h8v8h-8v8l-0.0281,8.0663H56V56H32v8h8v8h8V64h8V56.1626h8V64H56v8h8v8H56.0325v8h16V80h8v8H88v16H72.0325v8h16v-8H96V96h8V88H96V80H88V72h8v8h8v8h8V72h-8V64h8Z"/></svg>
