<svg id="Layer_1" class="n-icon" xmlns="http://www.w3.org/2000/svg" viewBox="0 0 128 128"><path id="_Path_" class="n-icon" class="n-icon" d="M100.1734,38.8607c-4.5455,2.7607-12.8513-10.9142-8.3058-13.6749l11.8282-7.1841A15.9711,15.9711,0,0,0,99.8171,16.48c-8.5842-2.0969-18.7391,2.93-19.34,11.7463a17.8548,17.8548,0,0,0,1.0175,6.965L36.0924,80.5941c-0.1063-.0508-0.2091-0.1121-0.3163-0.16C27.72,76.8024,18.5333,83.596,16.4365,92.18a15.9732,15.9732,0,0,0-.438,4.1433l11.8282-7.1841c4.5455-2.7608,12.8513,10.9141,8.3058,13.6749l-11.8282,7.1841a15.976,15.976,0,0,0,3.8787,1.5214c8.5842,2.0968,18.7391-2.93,19.34-11.7464a17.8536,17.8536,0,0,0-1.0175-6.965L91.9077,47.4058c0.1063,0.0508.2091,0.1121,0.3162,0.16,8.0559,3.6314,17.2429-3.1622,19.34-11.7463a15.9735,15.9735,0,0,0,.438-4.1433Z"/></svg>